<svg xmlns="http://www.w3.org/2000/svg" width="400" height="140" viewBox="0 0 400 140">
  <defs>
    <linearGradient id="g" gradientUnits="userSpaceOnUse" x1="0" y1="0" x2="400" y2="0">
      <stop offset="0" stop-color="#FF4FC3"/><stop offset="0.5" stop-color="#A06BFF"/><stop offset="1" stop-color="#6DE2F1"/>
    </linearGradient>
    <filter id="glow" x="-8%" y="-25%" width="116%" height="150%"><feGaussianBlur stdDeviation="3"/></filter>
  </defs>
  <rect x="6" y="6" width="388" height="128" rx="12" fill="none" stroke="url(#g)" stroke-width="2.5" filter="url(#glow)" opacity="0.45"/>
  <rect x="6" y="6" width="388" height="128" rx="12" fill="#292138" stroke="url(#g)" stroke-width="1.2"/>
  <path d="M25 27 h12 a2 2 0 0 1 2 2 v14 a2 2 0 0 1 -2 2 h-12 a3 3 0 0 1 -3 -3 v-12 a3 3 0 0 1 3 -3 z M25 41 h14" fill="none" stroke="#6DE2F1" stroke-width="1.5" stroke-linejoin="round"/>
  <text x="47" y="41" font-family="Fira Code, Courier New, monospace" font-size="17" font-weight="700" fill="url(#g)">claude-owasp-security-skills</text>
  <text x="25" y="77" font-family="Segoe UI, Helvetica, Arial, sans-serif" font-size="13" fill="#c9d1d9">OWASP Top 10:2025, API, Mobile, LLM/Agentic &amp;</text>
  <text x="25" y="96" font-family="Segoe UI, Helvetica, Arial, sans-serif" font-size="13" fill="#c9d1d9">CI/CD standards, shipped as Claude Code skills.</text>
  <circle cx="30" cy="116" r="4.5" fill="#89e051"/>
  <text x="41" y="120.5" font-family="Fira Code, Courier New, monospace" font-size="11.5" font-weight="600" fill="#6DE2F1">Shell · Claude Code Skills</text>
</svg>