<svg xmlns="http://www.w3.org/2000/svg" width="448" height="150" viewBox="0 0 448 150">
  <defs>
    <linearGradient id="g" x1="0" y1="0" x2="1" y2="0">
      <stop offset="0" stop-color="#FF4FC3"/><stop offset="0.5" stop-color="#A06BFF"/><stop offset="1" stop-color="#6DE2F1"/>
    </linearGradient>
    <filter id="glow" x="-8%" y="-25%" width="116%" height="150%"><feGaussianBlur stdDeviation="4"/></filter>
  </defs>
  <rect x="7" y="7" width="434" height="136" rx="14" fill="none" stroke="url(#g)" stroke-width="3" filter="url(#glow)" opacity="0.45"/>
  <rect x="7" y="7" width="434" height="136" rx="14" fill="#292138" stroke="url(#g)" stroke-width="1.5"/>
  <path d="M28 30 h13 a2 2 0 0 1 2 2 v16 a2 2 0 0 1 -2 2 h-13 a3 3 0 0 1 -3 -3 v-14 a3 3 0 0 1 3 -3 z M28 46 h15" fill="none" stroke="#6DE2F1" stroke-width="1.6" stroke-linejoin="round"/>
  <text x="52" y="46" font-family="Segoe UI, Helvetica, Arial, sans-serif" font-size="20.5" font-weight="800" fill="url(#g)">snyk-ai-secure-pipeline</text>
  
  <text x="28" y="86" font-family="Segoe UI, Helvetica, Arial, sans-serif" font-size="14.5" fill="#c4ccd6">End-to-end DevSecOps demo: Snyk Code, OSS,</text>
  <text x="28" y="107" font-family="Segoe UI, Helvetica, Arial, sans-serif" font-size="14.5" fill="#c4ccd6">Container &amp; IaC + an MCP server for Claude Code.</text>
  <circle cx="33" cy="128" r="5" fill="#f1e05a"/>
  <text x="45" y="132.5" font-family="Segoe UI, Helvetica, Arial, sans-serif" font-size="12.5" font-weight="600" fill="#6DE2F1">JavaScript  ·  DevSecOps</text>
</svg>